<svg width="166" height="73" viewBox="0 0 166 73" fill="none" xmlns="http://www.w3.org/2000/svg">
<g clip-path="url(#clip0_1044_1986)">
<path d="M17.3542 9H11.2292C10.6877 9 10.1684 9.2151 9.78549 9.59799C9.4026 9.98088 9.1875 10.5002 9.1875 11.0417V18.0242C9.17829 18.4452 9.29952 18.8589 9.53458 19.2083L11.9029 22.7404C12.1262 23.0726 12.2469 23.4631 12.25 23.8633V43.4429C12.2509 43.8501 12.13 44.2483 11.9029 44.5863L9.35083 48.4042C9.24507 48.5762 9.18857 48.7739 9.1875 48.9758V55.9583C9.1875 56.4998 9.4026 57.0191 9.78549 57.402C10.1684 57.7849 10.6877 58 11.2292 58H17.3542C17.8957 58 18.415 57.7849 18.7978 57.402C19.1807 57.0191 19.3958 56.4998 19.3958 55.9583V48.9758C19.3948 48.7739 19.3383 48.5762 19.2325 48.4042L16.6804 44.5863C16.4533 44.2483 16.3324 43.8501 16.3333 43.4429V23.8633C16.3365 23.4631 16.4572 23.0726 16.6804 22.7404L19.0488 19.2083C19.2759 18.8704 19.3967 18.4722 19.3958 18.065V11.0417C19.3958 10.5002 19.1807 9.98088 18.7978 9.59799C18.415 9.2151 17.8957 9 17.3542 9Z" fill="#FA8F2A"/>
<path d="M32.3194 9.24736C32.1312 9.08766 31.8925 9 31.6457 9C31.3989 9 31.1601 9.08766 30.9719 9.24736C23.5607 15.5969 23.479 29.8274 23.479 30.4399V52.8982C23.479 53.5685 23.611 54.2322 23.8675 54.8515C24.124 55.4707 24.5 56.0334 24.974 56.5074C25.4479 56.9813 26.0106 57.3573 26.6299 57.6138C27.2492 57.8703 27.9129 58.0024 28.5832 58.0024H34.7082C35.3785 58.0024 36.0422 57.8703 36.6615 57.6138C37.2807 57.3573 37.8434 56.9813 38.3174 56.5074C38.7913 56.0334 39.1673 55.4707 39.4238 54.8515C39.6803 54.2322 39.8123 53.5685 39.8123 52.8982V30.4399C39.8123 29.8274 39.7307 15.5969 32.3194 9.24736ZM35.729 39.2803C35.7255 39.919 35.5894 40.55 35.3293 41.1334C35.0692 41.7168 34.6909 42.2399 34.2182 42.6694L32.6257 44.1803C32.4926 44.3161 32.3338 44.424 32.1585 44.4976C31.9832 44.5713 31.795 44.6092 31.6048 44.6092C31.4147 44.6092 31.2265 44.5713 31.0512 44.4976C30.8759 44.424 30.7171 44.3161 30.584 44.1803L28.9915 42.6694C28.5188 42.2399 28.1405 41.7168 27.8804 41.1334C27.6203 40.55 27.4842 39.919 27.4807 39.2803V35.9932C27.489 35.3107 27.6448 34.6381 27.9373 34.0214C28.2298 33.4048 28.6521 32.8586 29.1753 32.4203L30.6248 31.1953C30.8887 30.9761 31.221 30.8561 31.564 30.8561C31.907 30.8561 32.2393 30.9761 32.5032 31.1953L33.9528 32.4203C34.476 32.8586 34.8983 33.4048 35.1907 34.0214C35.4832 34.6381 35.639 35.3107 35.6473 35.9932L35.729 39.2803Z" fill="#0080FF"/>
</g>
<path d="M60.2973 36.3673C59.3564 36.3673 58.5058 36.2449 57.7453 36C56.9849 35.7422 56.4693 35.4844 56.1987 35.2267L56.1407 31.2247C56.566 31.4567 56.9076 31.6113 57.1653 31.6887C57.4231 31.766 57.7582 31.8047 58.1707 31.8047C58.8667 31.8047 59.4144 31.5984 59.814 31.186C60.2264 30.7736 60.4327 30.0776 60.4327 29.098V15.0427L59.5047 13.3413H66.716V28.7307C66.716 29.6329 66.6644 30.4384 66.5613 31.1473C66.4711 31.8433 66.2842 32.5329 66.0007 33.216C65.7171 33.8862 65.3433 34.4469 64.8793 34.898C64.4153 35.3362 63.7967 35.6907 63.0233 35.9613C62.25 36.232 61.3413 36.3673 60.2973 36.3673ZM75.6501 27.242C75.6501 29.3816 75.8112 30.8702 76.1334 31.708C76.4686 32.5458 77.0486 32.9647 77.8734 32.9647C78.4792 32.9647 78.9368 32.8164 79.2461 32.52C79.5554 32.2107 79.7874 31.5856 79.9421 30.6447C80.1097 29.6909 80.1934 28.2667 80.1934 26.372V21.7127C80.1934 19.8696 80.013 18.4969 79.6521 17.5947C79.2912 16.6924 78.6983 16.2413 77.8734 16.2413C77.0486 16.2413 76.4686 16.686 76.1334 17.5753C75.8112 18.4518 75.6501 20.0564 75.6501 22.3893V27.242ZM77.4674 36.406C76.3977 36.406 75.431 36.3093 74.5674 36.116C73.7168 35.9227 72.9821 35.652 72.3634 35.304C71.7448 34.956 71.2034 34.5113 70.7394 33.97C70.2883 33.4287 69.921 32.8487 69.6374 32.23C69.3668 31.6113 69.1477 30.8896 68.9801 30.0647C68.8126 29.2269 68.6966 28.3956 68.6321 27.5707C68.5677 26.7329 68.5354 25.792 68.5354 24.748C68.5354 23.2013 68.6128 21.8544 68.7674 20.7073C68.935 19.5602 69.2379 18.484 69.6761 17.4787C70.1143 16.4604 70.6943 15.6356 71.4161 15.004C72.1508 14.3724 73.0917 13.8762 74.2388 13.5153C75.3988 13.1544 76.765 12.974 78.3374 12.974C79.4201 12.974 80.3932 13.0771 81.2568 13.2833C82.1203 13.4767 82.8614 13.7473 83.4801 14.0953C84.0988 14.4433 84.6337 14.8944 85.0848 15.4487C85.5488 16.0029 85.9161 16.5958 86.1868 17.2273C86.4703 17.846 86.6959 18.5742 86.8634 19.412C87.031 20.2498 87.147 21.0811 87.2114 21.906C87.2759 22.7309 87.3081 23.6653 87.3081 24.7093C87.3081 26.256 87.2243 27.6029 87.0568 28.75C86.8892 29.8971 86.5863 30.9733 86.1481 31.9787C85.7099 32.9711 85.1234 33.7831 84.3888 34.4147C83.6541 35.0333 82.7068 35.5231 81.5468 35.884C80.3997 36.232 79.0399 36.406 77.4674 36.406ZM93.4735 36V28.924L87.0548 13.3413H94.3822L96.3735 19.18L97.7075 23.9553L98.8095 19.18L100.317 13.3413H106.079L100.414 28.808V36H93.4735ZM109.962 36V18.4647H105.438V13.3413H121.02V18.4647H116.496V36H109.962ZM122.793 36V13.3413H129.385V36H122.793ZM139.661 32.8293C140.64 32.8293 141.388 32.2236 141.903 31.012C142.432 29.8004 142.696 27.8027 142.696 25.0187V23.066C142.696 21.0296 142.451 19.4571 141.961 18.3487C141.471 17.2402 140.775 16.686 139.873 16.686H138.423V32.8293H139.661ZM140.26 36.1353C139.796 36.1353 139.074 36.1096 138.095 36.058C137.128 36.0193 136.129 36 135.098 36H132.024V13.3413H135.098C135.961 13.3284 136.902 13.2962 137.921 13.2447C138.939 13.1931 139.738 13.1673 140.318 13.1673C143.605 13.1673 145.957 14.0889 147.375 15.932C148.805 17.7751 149.521 20.4624 149.521 23.994C149.521 25.1927 149.437 26.3333 149.269 27.416C149.115 28.4987 148.818 29.5878 148.38 30.6833C147.942 31.766 147.387 32.7004 146.717 33.4867C146.047 34.2729 145.158 34.9109 144.049 35.4007C142.941 35.8904 141.678 36.1353 140.26 36.1353ZM165.046 36H151.338V13.3413H164.756L164.369 17.904L157.738 17.7107V22.08H162.958V26.604L157.738 26.2173V31.36L165.046 31.1667V36Z" fill="#122431"/>
<path d="M62.016 53.06V58H57.8107V43.1547H59.4827C59.888 43.1547 60.4918 43.1378 61.294 43.104C62.0962 43.0618 62.7591 43.0407 63.2827 43.0407C65.1067 43.0407 66.4662 43.4418 67.3613 44.244C68.2649 45.0462 68.7167 46.2749 68.7167 47.93C68.7167 48.9096 68.5013 49.7793 68.0707 50.5393C67.6484 51.2993 67.0869 51.9031 66.386 52.3507C66.766 52.4436 67.0911 52.6589 67.3613 52.9967C67.64 53.3344 67.8553 53.7356 68.0073 54.2C68.1593 54.656 68.2902 55.1204 68.4 55.5933C68.5182 56.0578 68.6491 56.518 68.7927 56.974C68.9447 57.43 69.1093 57.772 69.2867 58H64.6127C64.5198 57.8818 64.448 57.5524 64.3973 57.012C64.3467 56.4631 64.2749 55.8087 64.182 55.0487C64.0976 54.2802 63.9751 53.6384 63.8147 53.1233C63.7978 53.1233 63.7767 53.1233 63.7513 53.1233C63.5909 53.1233 63.4178 53.1233 63.232 53.1233C63.0547 53.1149 62.8984 53.1064 62.7633 53.098C62.6282 53.0896 62.4847 53.0811 62.3327 53.0727C62.1891 53.0642 62.0836 53.06 62.016 53.06ZM62.016 50.704H62.4213C62.6324 50.704 62.8098 50.6956 62.9533 50.6787C63.0969 50.6618 63.2531 50.6322 63.422 50.59C63.5993 50.5393 63.7429 50.4633 63.8527 50.362C63.9709 50.2607 64.0807 50.1298 64.182 49.9693C64.2833 49.8089 64.3593 49.602 64.41 49.3487C64.4607 49.0953 64.486 48.7998 64.486 48.462V47.4613C64.486 46.7267 64.2918 46.2158 63.9033 45.9287C63.5233 45.6331 62.9744 45.4853 62.2567 45.4853H62.016V50.704ZM79.0754 58H70.0948V43.1547H78.8854L78.6321 46.144L74.2874 46.0173V48.88H77.7074V51.844L74.2874 51.5907V54.96L79.0754 54.8333V58ZM84.2536 58H80.2256V44.3453L79.605 43.1547H84.2663L86.597 47.968L88.8263 52.7687L88.2056 47.132V43.1547H92.2463V58H88.383L85.3683 52.1353L83.5063 48.462L84.2536 53.326V58ZM96.3121 58V46.5113H93.3481V43.1547H103.557V46.5113H100.593V58H96.3121ZM111.964 58L111.394 55.6313H107.797L107.315 58H103.591L107.455 44.1807L107.151 43.1547H112.382L116.613 58H111.964ZM109.431 47.512L108.316 53.0473H110.773L109.431 47.512ZM117.112 58V43.1547H121.305V54.6053H125.08V58H117.112ZM130.662 58.266C130.012 58.266 129.404 58.2069 128.838 58.0887C128.281 57.9789 127.812 57.8311 127.432 57.6453C127.052 57.4596 126.739 57.2822 126.495 57.1133C126.258 56.9444 126.06 56.7756 125.899 56.6067L126.216 53.5287C126.562 53.9931 127.027 54.3984 127.609 54.7447C128.192 55.0824 128.821 55.2513 129.497 55.2513C130.172 55.2513 130.658 55.1796 130.953 55.036C131.257 54.8924 131.409 54.6307 131.409 54.2507C131.409 53.8453 131.236 53.4991 130.89 53.212C130.552 52.9249 129.965 52.5787 129.129 52.1733C128.825 52.0213 128.568 51.8862 128.357 51.768C128.145 51.6413 127.863 51.4387 127.508 51.16C127.162 50.8729 126.879 50.5773 126.659 50.2733C126.44 49.9609 126.245 49.564 126.077 49.0827C125.908 48.5929 125.823 48.0693 125.823 47.512C125.823 44.4973 127.525 42.99 130.928 42.99C131.468 42.99 131.975 43.0491 132.448 43.1673C132.929 43.2771 133.305 43.3996 133.575 43.5347C133.845 43.6698 134.09 43.8302 134.31 44.016C134.538 44.1933 134.681 44.32 134.741 44.396C134.8 44.4636 134.842 44.5184 134.867 44.5607L134.234 47.0053C133.905 46.6169 133.491 46.3298 132.993 46.144C132.503 45.9498 132.034 45.8527 131.587 45.8527C130.506 45.8527 129.965 46.1904 129.965 46.866C129.965 47.0433 129.999 47.2038 130.067 47.3473C130.134 47.4909 130.244 47.6218 130.396 47.74C130.548 47.8582 130.687 47.9596 130.814 48.044C130.949 48.1284 131.131 48.234 131.359 48.3607C131.595 48.4789 131.772 48.576 131.891 48.652C133.123 49.1756 134.027 49.7962 134.601 50.514C135.184 51.2318 135.475 52.1058 135.475 53.136C135.475 54.808 135.061 56.0831 134.234 56.9613C133.415 57.8311 132.224 58.266 130.662 58.266Z" fill="black"/>
<defs>
<clipPath id="clip0_1044_1986">
<rect width="49" height="49" fill="white" transform="translate(0 9)"/>
</clipPath>
</defs>
</svg>
