<svg width="79" height="79" viewBox="0 0 79 79" fill="none" xmlns="http://www.w3.org/2000/svg">
<circle cx="39.5" cy="39.5" r="20.5" fill="white"/>
<path d="M39.5002 72.4193C21.3208 72.4193 6.5835 57.6818 6.5835 39.5026C6.5835 21.3232 21.3208 6.58594 39.5002 6.58594C57.6794 6.58594 72.4168 21.3232 72.4168 39.5026C72.4168 57.6818 57.6794 72.4193 39.5002 72.4193ZM34.9639 27.7006C34.7477 27.5564 34.4935 27.4795 34.2335 27.4795C33.5064 27.4795 32.9168 28.069 32.9168 28.7962V50.2091C32.9168 50.4691 32.9939 50.7232 33.138 50.9395C33.5413 51.5445 34.3589 51.7081 34.9639 51.3045L51.0236 40.5981C51.1681 40.5016 51.2922 40.3775 51.3887 40.233C51.7922 39.628 51.6286 38.8104 51.0236 38.4071L34.9639 27.7006Z" fill="#E21515"/>
</svg>
